{
	"patcher" : 	{
		"fileversion" : 1,
		"appversion" : 		{
			"major" : 9,
			"minor" : 0,
			"revision" : 5,
			"architecture" : "x64",
			"modernui" : 1
		}
,
		"classnamespace" : "box",
		"rect" : [ 34.0, 93.0, 1098.0, 526.0 ],
		"default_fontname" : "Ableton Sans Medium",
		"gridonopen" : 2,
		"gridsize" : [ 10.0, 10.0 ],
		"subpatcher_template" : " ",
		"helpsidebarclosed" : 1,
		"boxes" : [ 			{
				"box" : 				{
					"bubble" : 1,
					"fontname" : "Ableton Sans Medium",
					"fontsize" : 12.0,
					"id" : "obj-22",
					"maxclass" : "comment",
					"numinlets" : 1,
					"numoutlets" : 0,
					"patching_rect" : [ 95.5, 165.0, 109.0, 25.0 ],
					"text" : "send some data"
				}

			}
, 			{
				"box" : 				{
					"bgcolor" : [ 1.0, 0.788235, 0.470588, 1.0 ],
					"bgoncolor" : [ 0.55, 0.55, 0.55, 1.0 ],
					"fontname" : "Ableton Sans Medium",
					"fontsize" : 10.0,
					"hint" : "",
					"id" : "obj-21",
					"ignoreclick" : 1,
					"legacytextcolor" : 1,
					"maxclass" : "textbutton",
					"numinlets" : 1,
					"numoutlets" : 3,
					"outlettype" : [ "", "", "int" ],
					"parameter_enable" : 0,
					"patching_rect" : [ 70.0, 167.5, 20.0, 20.0 ],
					"rounded" : 60.0,
					"text" : "6",
					"textcolor" : [ 0.34902, 0.34902, 0.34902, 1.0 ],
					"textoncolor" : [ 1.0, 1.0, 1.0, 1.0 ],
					"textovercolor" : [ 0.1, 0.1, 0.1, 1.0 ],
					"usebgoncolor" : 1,
					"usetextovercolor" : 1
				}

			}
, 			{
				"box" : 				{
					"id" : "obj-10",
					"maxclass" : "toggle",
					"numinlets" : 1,
					"numoutlets" : 1,
					"outlettype" : [ "int" ],
					"parameter_enable" : 0,
					"patching_rect" : [ 41.0, 165.5, 24.0, 24.0 ]
				}

			}
, 			{
				"box" : 				{
					"id" : "obj-8",
					"maxclass" : "newobj",
					"numinlets" : 2,
					"numoutlets" : 1,
					"outlettype" : [ "bang" ],
					"patching_rect" : [ 41.0, 207.0, 71.0, 23.0 ],
					"text" : "qmetro 500"
				}

			}
, 			{
				"box" : 				{
					"id" : "obj-7",
					"maxclass" : "message",
					"numinlets" : 2,
					"numoutlets" : 1,
					"outlettype" : [ "" ],
					"patching_rect" : [ 41.0, 330.0, 186.0, 23.0 ],
					"text" : "param1 $1, param2 \"hello world\""
				}

			}
, 			{
				"box" : 				{
					"id" : "obj-11",
					"maxclass" : "button",
					"numinlets" : 1,
					"numoutlets" : 1,
					"outlettype" : [ "bang" ],
					"parameter_enable" : 0,
					"patching_rect" : [ 41.0, 247.5, 24.0, 24.0 ]
				}

			}
, 			{
				"box" : 				{
					"id" : "obj-15",
					"maxclass" : "newobj",
					"numinlets" : 2,
					"numoutlets" : 1,
					"outlettype" : [ "" ],
					"patching_rect" : [ 41.0, 289.0, 73.0, 23.0 ],
					"text" : "random 100"
				}

			}
, 			{
				"box" : 				{
					"bgmode" : 0,
					"border" : 1,
					"clickthrough" : 0,
					"enablehscroll" : 0,
					"enablevscroll" : 0,
					"id" : "obj-4",
					"lockeddragscroll" : 0,
					"lockedsize" : 0,
					"maxclass" : "bpatcher",
					"name" : "oocsi.maxpat",
					"numinlets" : 2,
					"numoutlets" : 1,
					"offset" : [ 0.0, 0.0 ],
					"outlettype" : [ "" ],
					"patching_rect" : [ 267.0, 394.0, 214.0, 45.0 ],
					"varname" : "mo.oocsi[1]",
					"viewvisibility" : 1
				}

			}
, 			{
				"box" : 				{
					"id" : "obj-2",
					"maxclass" : "message",
					"numinlets" : 2,
					"numoutlets" : 1,
					"outlettype" : [ "" ],
					"patching_rect" : [ 719.0, 330.0, 74.0, 23.0 ],
					"text" : "unsubscribe"
				}

			}
, 			{
				"box" : 				{
					"bubble" : 1,
					"fontname" : "Ableton Sans Medium",
					"fontsize" : 12.0,
					"id" : "obj-40",
					"maxclass" : "comment",
					"numinlets" : 1,
					"numoutlets" : 0,
					"patching_rect" : [ 579.0, 247.0, 87.0, 25.0 ],
					"text" : "set client id"
				}

			}
, 			{
				"box" : 				{
					"bgcolor" : [ 1.0, 0.788235, 0.470588, 1.0 ],
					"bgoncolor" : [ 0.55, 0.55, 0.55, 1.0 ],
					"fontname" : "Ableton Sans Medium",
					"fontsize" : 10.0,
					"hint" : "",
					"id" : "obj-41",
					"ignoreclick" : 1,
					"legacytextcolor" : 1,
					"maxclass" : "textbutton",
					"numinlets" : 1,
					"numoutlets" : 3,
					"outlettype" : [ "", "", "int" ],
					"parameter_enable" : 0,
					"patching_rect" : [ 555.0, 250.0, 20.0, 20.0 ],
					"rounded" : 60.0,
					"text" : "3",
					"textcolor" : [ 0.34902, 0.34902, 0.34902, 1.0 ],
					"textoncolor" : [ 1.0, 1.0, 1.0, 1.0 ],
					"textovercolor" : [ 0.1, 0.1, 0.1, 1.0 ],
					"usebgoncolor" : 1,
					"usetextovercolor" : 1
				}

			}
, 			{
				"box" : 				{
					"id" : "obj-42",
					"maxclass" : "message",
					"numinlets" : 2,
					"numoutlets" : 1,
					"outlettype" : [ "" ],
					"patching_rect" : [ 462.0, 248.0, 86.0, 23.0 ],
					"text" : "client-1_####"
				}

			}
, 			{
				"box" : 				{
					"id" : "obj-43",
					"maxclass" : "newobj",
					"numinlets" : 1,
					"numoutlets" : 1,
					"outlettype" : [ "" ],
					"patching_rect" : [ 462.0, 289.0, 86.0, 23.0 ],
					"text" : "prepend client"
				}

			}
, 			{
				"box" : 				{
					"bubble" : 1,
					"fontname" : "Ableton Sans Medium",
					"fontsize" : 12.0,
					"id" : "obj-38",
					"maxclass" : "comment",
					"numinlets" : 1,
					"numoutlets" : 0,
					"patching_rect" : [ 934.0, 287.0, 133.0, 25.0 ],
					"text" : "connect/disconnect"
				}

			}
, 			{
				"box" : 				{
					"bgcolor" : [ 1.0, 0.788235, 0.470588, 1.0 ],
					"bgoncolor" : [ 0.55, 0.55, 0.55, 1.0 ],
					"fontname" : "Ableton Sans Medium",
					"fontsize" : 10.0,
					"hint" : "",
					"id" : "obj-39",
					"ignoreclick" : 1,
					"legacytextcolor" : 1,
					"maxclass" : "textbutton",
					"numinlets" : 1,
					"numoutlets" : 3,
					"outlettype" : [ "", "", "int" ],
					"parameter_enable" : 0,
					"patching_rect" : [ 910.0, 290.0, 20.0, 20.0 ],
					"rounded" : 60.0,
					"text" : "5",
					"textcolor" : [ 0.34902, 0.34902, 0.34902, 1.0 ],
					"textoncolor" : [ 1.0, 1.0, 1.0, 1.0 ],
					"textovercolor" : [ 0.1, 0.1, 0.1, 1.0 ],
					"usebgoncolor" : 1,
					"usetextovercolor" : 1
				}

			}
, 			{
				"box" : 				{
					"bubble" : 1,
					"fontname" : "Ableton Sans Medium",
					"fontsize" : 12.0,
					"id" : "obj-36",
					"maxclass" : "comment",
					"numinlets" : 1,
					"numoutlets" : 0,
					"patching_rect" : [ 690.0, 288.0, 173.0, 25.0 ],
					"text" : "set channel (and subscribe)"
				}

			}
, 			{
				"box" : 				{
					"bgcolor" : [ 1.0, 0.788235, 0.470588, 1.0 ],
					"bgoncolor" : [ 0.55, 0.55, 0.55, 1.0 ],
					"fontname" : "Ableton Sans Medium",
					"fontsize" : 10.0,
					"hint" : "",
					"id" : "obj-37",
					"ignoreclick" : 1,
					"legacytextcolor" : 1,
					"maxclass" : "textbutton",
					"numinlets" : 1,
					"numoutlets" : 3,
					"outlettype" : [ "", "", "int" ],
					"parameter_enable" : 0,
					"patching_rect" : [ 666.0, 291.0, 20.0, 20.0 ],
					"rounded" : 60.0,
					"text" : "4",
					"textcolor" : [ 0.34902, 0.34902, 0.34902, 1.0 ],
					"textoncolor" : [ 1.0, 1.0, 1.0, 1.0 ],
					"textovercolor" : [ 0.1, 0.1, 0.1, 1.0 ],
					"usebgoncolor" : 1,
					"usetextovercolor" : 1
				}

			}
, 			{
				"box" : 				{
					"bubble" : 1,
					"fontname" : "Ableton Sans Medium",
					"fontsize" : 12.0,
					"id" : "obj-32",
					"maxclass" : "comment",
					"numinlets" : 1,
					"numoutlets" : 0,
					"patching_rect" : [ 422.0, 206.0, 68.0, 25.0 ],
					"text" : "set port"
				}

			}
, 			{
				"box" : 				{
					"bgcolor" : [ 1.0, 0.788235, 0.470588, 1.0 ],
					"bgoncolor" : [ 0.55, 0.55, 0.55, 1.0 ],
					"fontname" : "Ableton Sans Medium",
					"fontsize" : 10.0,
					"hint" : "",
					"id" : "obj-34",
					"ignoreclick" : 1,
					"legacytextcolor" : 1,
					"maxclass" : "textbutton",
					"numinlets" : 1,
					"numoutlets" : 3,
					"outlettype" : [ "", "", "int" ],
					"parameter_enable" : 0,
					"patching_rect" : [ 398.0, 209.0, 20.0, 20.0 ],
					"rounded" : 60.0,
					"text" : "2",
					"textcolor" : [ 0.34902, 0.34902, 0.34902, 1.0 ],
					"textoncolor" : [ 1.0, 1.0, 1.0, 1.0 ],
					"textovercolor" : [ 0.1, 0.1, 0.1, 1.0 ],
					"usebgoncolor" : 1,
					"usetextovercolor" : 1
				}

			}
, 			{
				"box" : 				{
					"bubble" : 1,
					"fontname" : "Ableton Sans Medium",
					"fontsize" : 12.0,
					"id" : "obj-20",
					"maxclass" : "comment",
					"numinlets" : 1,
					"numoutlets" : 0,
					"patching_rect" : [ 353.0, 165.0, 105.0, 25.0 ],
					"text" : "set server host"
				}

			}
, 			{
				"box" : 				{
					"bgcolor" : [ 1.0, 0.788235, 0.470588, 1.0 ],
					"bgoncolor" : [ 0.55, 0.55, 0.55, 1.0 ],
					"fontname" : "Ableton Sans Medium",
					"fontsize" : 10.0,
					"hint" : "",
					"id" : "obj-35",
					"ignoreclick" : 1,
					"legacytextcolor" : 1,
					"maxclass" : "textbutton",
					"numinlets" : 1,
					"numoutlets" : 3,
					"outlettype" : [ "", "", "int" ],
					"parameter_enable" : 0,
					"patching_rect" : [ 325.0, 167.0, 20.0, 20.0 ],
					"rounded" : 60.0,
					"text" : "1",
					"textcolor" : [ 0.34902, 0.34902, 0.34902, 1.0 ],
					"textoncolor" : [ 1.0, 1.0, 1.0, 1.0 ],
					"textovercolor" : [ 0.1, 0.1, 0.1, 1.0 ],
					"usebgoncolor" : 1,
					"usetextovercolor" : 1
				}

			}
, 			{
				"box" : 				{
					"id" : "obj-27",
					"maxclass" : "message",
					"numinlets" : 2,
					"numoutlets" : 1,
					"outlettype" : [ "" ],
					"patching_rect" : [ 588.0, 289.0, 72.0, 23.0 ],
					"text" : "maxchannel"
				}

			}
, 			{
				"box" : 				{
					"id" : "obj-23",
					"maxclass" : "newobj",
					"numinlets" : 1,
					"numoutlets" : 1,
					"outlettype" : [ "" ],
					"patching_rect" : [ 588.0, 330.0, 98.0, 23.0 ],
					"text" : "prepend channel"
				}

			}
, 			{
				"box" : 				{
					"id" : "obj-19",
					"maxclass" : "message",
					"numinlets" : 2,
					"numoutlets" : 1,
					"outlettype" : [ "" ],
					"patching_rect" : [ 803.0, 330.0, 60.0, 23.0 ],
					"text" : "subscribe"
				}

			}
, 			{
				"box" : 				{
					"id" : "obj-16",
					"maxclass" : "message",
					"numinlets" : 2,
					"numoutlets" : 1,
					"outlettype" : [ "" ],
					"patching_rect" : [ 353.0, 207.0, 37.0, 23.0 ],
					"text" : "4444"
				}

			}
, 			{
				"box" : 				{
					"id" : "obj-14",
					"maxclass" : "message",
					"numinlets" : 2,
					"numoutlets" : 1,
					"outlettype" : [ "" ],
					"patching_rect" : [ 236.0, 166.0, 84.0, 23.0 ],
					"text" : "oocsi.id.tue.nl"
				}

			}
, 			{
				"box" : 				{
					"id" : "obj-12",
					"maxclass" : "newobj",
					"numinlets" : 1,
					"numoutlets" : 1,
					"outlettype" : [ "" ],
					"patching_rect" : [ 353.0, 248.0, 79.0, 23.0 ],
					"text" : "prepend port"
				}

			}
, 			{
				"box" : 				{
					"id" : "obj-9",
					"maxclass" : "newobj",
					"numinlets" : 1,
					"numoutlets" : 1,
					"outlettype" : [ "" ],
					"patching_rect" : [ 236.0, 207.0, 80.0, 23.0 ],
					"text" : "prepend host"
				}

			}
, 			{
				"box" : 				{
					"id" : "obj-5",
					"maxclass" : "toggle",
					"numinlets" : 1,
					"numoutlets" : 1,
					"outlettype" : [ "int" ],
					"parameter_enable" : 0,
					"patching_rect" : [ 881.0, 288.0, 24.0, 24.0 ]
				}

			}
, 			{
				"box" : 				{
					"id" : "obj-3",
					"maxclass" : "message",
					"numinlets" : 2,
					"numoutlets" : 1,
					"outlettype" : [ "" ],
					"patching_rect" : [ 881.0, 330.0, 69.0, 23.0 ],
					"text" : "connect $1"
				}

			}
, 			{
				"box" : 				{
					"fontname" : "Arial",
					"fontsize" : 13.0,
					"id" : "obj-1",
					"maxclass" : "newobj",
					"numinlets" : 1,
					"numoutlets" : 0,
					"patching_rect" : [ 267.0, 472.0, 98.0, 23.0 ],
					"text" : "print @popup 1"
				}

			}
, 			{
				"box" : 				{
					"bgmode" : 0,
					"border" : 1,
					"clickthrough" : 0,
					"enablehscroll" : 0,
					"enablevscroll" : 0,
					"id" : "obj-29",
					"lockeddragscroll" : 0,
					"lockedsize" : 0,
					"maxclass" : "bpatcher",
					"name" : "oocsi.maxpat",
					"numinlets" : 2,
					"numoutlets" : 1,
					"offset" : [ 0.0, 0.0 ],
					"outlettype" : [ "" ],
					"patching_rect" : [ 41.0, 394.0, 214.0, 45.0 ],
					"varname" : "mo.oocsi",
					"viewvisibility" : 1
				}

			}
, 			{
				"box" : 				{
					"fontname" : "Ableton Sans Medium",
					"fontsize" : 13.0,
					"id" : "obj-30",
					"maxclass" : "comment",
					"numinlets" : 1,
					"numoutlets" : 0,
					"patching_rect" : [ 9.0, 102.0, 141.0, 22.0 ],
					"text" : "https://oocsi.id.tue.nl/",
					"textcolor" : [ 0.274509803921569, 0.274509803921569, 0.274509803921569, 1.0 ]
				}

			}
, 			{
				"box" : 				{
					"fontname" : "Ableton Sans Medium",
					"fontsize" : 14.0,
					"id" : "obj-26",
					"maxclass" : "comment",
					"numinlets" : 1,
					"numoutlets" : 0,
					"patching_rect" : [ 9.0, 83.0, 270.0, 23.0 ],
					"text" : "Send and receive data to and from OOCSI."
				}

			}
, 			{
				"box" : 				{
					"fontface" : 0,
					"fontname" : "Ableton Sans Medium",
					"fontsize" : 54.0,
					"id" : "obj-24",
					"maxclass" : "comment",
					"numinlets" : 1,
					"numoutlets" : 0,
					"patching_rect" : [ 9.0, 9.0, 134.0, 71.0 ],
					"text" : "oocsi"
				}

			}
 ],
		"lines" : [ 			{
				"patchline" : 				{
					"destination" : [ "obj-8", 0 ],
					"midpoints" : [ 50.5, 192.0, 50.5, 192.0 ],
					"source" : [ "obj-10", 0 ]
				}

			}
, 			{
				"patchline" : 				{
					"destination" : [ "obj-15", 0 ],
					"midpoints" : [ 50.5, 273.0, 50.5, 273.0 ],
					"source" : [ "obj-11", 0 ]
				}

			}
, 			{
				"patchline" : 				{
					"destination" : [ "obj-29", 1 ],
					"midpoints" : [ 362.5, 381.0, 245.5, 381.0 ],
					"order" : 1,
					"source" : [ "obj-12", 0 ]
				}

			}
, 			{
				"patchline" : 				{
					"destination" : [ "obj-4", 1 ],
					"midpoints" : [ 362.5, 381.0, 471.5, 381.0 ],
					"order" : 0,
					"source" : [ "obj-12", 0 ]
				}

			}
, 			{
				"patchline" : 				{
					"destination" : [ "obj-9", 0 ],
					"midpoints" : [ 245.5, 192.0, 245.5, 192.0 ],
					"source" : [ "obj-14", 0 ]
				}

			}
, 			{
				"patchline" : 				{
					"destination" : [ "obj-7", 0 ],
					"midpoints" : [ 50.5, 315.0, 50.5, 315.0 ],
					"source" : [ "obj-15", 0 ]
				}

			}
, 			{
				"patchline" : 				{
					"destination" : [ "obj-12", 0 ],
					"midpoints" : [ 362.5, 231.0, 362.5, 231.0 ],
					"source" : [ "obj-16", 0 ]
				}

			}
, 			{
				"patchline" : 				{
					"destination" : [ "obj-29", 1 ],
					"midpoints" : [ 812.5, 381.0, 245.5, 381.0 ],
					"order" : 1,
					"source" : [ "obj-19", 0 ]
				}

			}
, 			{
				"patchline" : 				{
					"destination" : [ "obj-4", 1 ],
					"midpoints" : [ 812.5, 381.0, 471.5, 381.0 ],
					"order" : 0,
					"source" : [ "obj-19", 0 ]
				}

			}
, 			{
				"patchline" : 				{
					"destination" : [ "obj-29", 1 ],
					"midpoints" : [ 728.5, 381.0, 245.5, 381.0 ],
					"order" : 1,
					"source" : [ "obj-2", 0 ]
				}

			}
, 			{
				"patchline" : 				{
					"destination" : [ "obj-4", 1 ],
					"midpoints" : [ 728.5, 381.0, 471.5, 381.0 ],
					"order" : 0,
					"source" : [ "obj-2", 0 ]
				}

			}
, 			{
				"patchline" : 				{
					"destination" : [ "obj-29", 1 ],
					"midpoints" : [ 597.5, 381.0, 245.5, 381.0 ],
					"order" : 1,
					"source" : [ "obj-23", 0 ]
				}

			}
, 			{
				"patchline" : 				{
					"destination" : [ "obj-4", 1 ],
					"midpoints" : [ 597.5, 381.0, 471.5, 381.0 ],
					"order" : 0,
					"source" : [ "obj-23", 0 ]
				}

			}
, 			{
				"patchline" : 				{
					"destination" : [ "obj-23", 0 ],
					"midpoints" : [ 597.5, 315.0, 597.5, 315.0 ],
					"source" : [ "obj-27", 0 ]
				}

			}
, 			{
				"patchline" : 				{
					"destination" : [ "obj-29", 1 ],
					"midpoints" : [ 890.5, 381.0, 245.5, 381.0 ],
					"order" : 1,
					"source" : [ "obj-3", 0 ]
				}

			}
, 			{
				"patchline" : 				{
					"destination" : [ "obj-4", 1 ],
					"midpoints" : [ 890.5, 381.0, 471.5, 381.0 ],
					"order" : 0,
					"source" : [ "obj-3", 0 ]
				}

			}
, 			{
				"patchline" : 				{
					"destination" : [ "obj-1", 0 ],
					"midpoints" : [ 276.5, 441.0, 276.5, 441.0 ],
					"source" : [ "obj-4", 0 ]
				}

			}
, 			{
				"patchline" : 				{
					"destination" : [ "obj-43", 0 ],
					"midpoints" : [ 471.5, 273.0, 471.5, 273.0 ],
					"source" : [ "obj-42", 0 ]
				}

			}
, 			{
				"patchline" : 				{
					"destination" : [ "obj-29", 1 ],
					"midpoints" : [ 471.5, 381.0, 245.5, 381.0 ],
					"order" : 1,
					"source" : [ "obj-43", 0 ]
				}

			}
, 			{
				"patchline" : 				{
					"destination" : [ "obj-4", 1 ],
					"midpoints" : [ 471.5, 315.0, 471.5, 315.0 ],
					"order" : 0,
					"source" : [ "obj-43", 0 ]
				}

			}
, 			{
				"patchline" : 				{
					"destination" : [ "obj-3", 0 ],
					"midpoints" : [ 890.5, 315.0, 890.5, 315.0 ],
					"source" : [ "obj-5", 0 ]
				}

			}
, 			{
				"patchline" : 				{
					"destination" : [ "obj-29", 0 ],
					"midpoints" : [ 50.5, 354.0, 50.5, 354.0 ],
					"source" : [ "obj-7", 0 ]
				}

			}
, 			{
				"patchline" : 				{
					"destination" : [ "obj-11", 0 ],
					"midpoints" : [ 50.5, 231.0, 50.5, 231.0 ],
					"source" : [ "obj-8", 0 ]
				}

			}
, 			{
				"patchline" : 				{
					"destination" : [ "obj-29", 1 ],
					"midpoints" : [ 245.5, 231.0, 245.5, 231.0 ],
					"order" : 1,
					"source" : [ "obj-9", 0 ]
				}

			}
, 			{
				"patchline" : 				{
					"destination" : [ "obj-4", 1 ],
					"midpoints" : [ 245.5, 381.0, 471.5, 381.0 ],
					"order" : 0,
					"source" : [ "obj-9", 0 ]
				}

			}
 ],
		"originid" : "pat-3522",
		"parameters" : 		{
			"obj-29::obj-115" : [ "live.text[237]", "live.text", 0 ],
			"obj-29::obj-135" : [ "live.text[227]", "live.text", 0 ],
			"obj-29::obj-4" : [ "live.text[241]", "live.text", 0 ],
			"obj-29::obj-54" : [ "live.text[229]", "live.text", 0 ],
			"obj-29::obj-7" : [ "live.text[230]", "live.text", 0 ],
			"obj-29::obj-70" : [ "live.numbox[28]", "live.numbox", 0 ],
			"obj-4::obj-115" : [ "live.text[3]", "live.text", 0 ],
			"obj-4::obj-135" : [ "live.text[4]", "live.text", 0 ],
			"obj-4::obj-4" : [ "live.text[1]", "live.text", 0 ],
			"obj-4::obj-54" : [ "live.text[242]", "live.text", 0 ],
			"obj-4::obj-7" : [ "live.text[2]", "live.text", 0 ],
			"obj-4::obj-70" : [ "live.numbox[1]", "live.numbox", 0 ],
			"parameterbanks" : 			{
				"0" : 				{
					"index" : 0,
					"name" : "",
					"parameters" : [ "-", "-", "-", "-", "-", "-", "-", "-" ]
				}

			}
,
			"parameter_overrides" : 			{
				"obj-29::obj-115" : 				{
					"parameter_longname" : "live.text[237]"
				}
,
				"obj-29::obj-135" : 				{
					"parameter_longname" : "live.text[227]"
				}
,
				"obj-29::obj-4" : 				{
					"parameter_longname" : "live.text[241]"
				}
,
				"obj-29::obj-54" : 				{
					"parameter_longname" : "live.text[229]"
				}
,
				"obj-29::obj-7" : 				{
					"parameter_longname" : "live.text[230]"
				}
,
				"obj-29::obj-70" : 				{
					"parameter_longname" : "live.numbox[28]"
				}
,
				"obj-4::obj-115" : 				{
					"parameter_longname" : "live.text[3]"
				}
,
				"obj-4::obj-135" : 				{
					"parameter_longname" : "live.text[4]"
				}
,
				"obj-4::obj-4" : 				{
					"parameter_longname" : "live.text[1]"
				}
,
				"obj-4::obj-7" : 				{
					"parameter_longname" : "live.text[2]"
				}
,
				"obj-4::obj-70" : 				{
					"parameter_longname" : "live.numbox[1]"
				}

			}
,
			"inherited_shortname" : 1
		}
,
		"dependency_cache" : [ 			{
				"name" : "a-mo.settings.maxpat",
				"bootpath" : "~/Documents/Max 9/Packages/modulo/misc/abstractions",
				"patcherrelativepath" : "../../../Max 9/Packages/modulo/misc/abstractions",
				"type" : "JSON",
				"implicit" : 1
			}
, 			{
				"name" : "mo.oocsi.receive.js",
				"bootpath" : "~/Documents/GitHub/oocsi-max/js",
				"patcherrelativepath" : "../js",
				"type" : "TEXT",
				"implicit" : 1
			}
, 			{
				"name" : "mo.oocsi.sender.js",
				"bootpath" : "~/Documents/GitHub/oocsi-max/js",
				"patcherrelativepath" : "../js",
				"type" : "TEXT",
				"implicit" : 1
			}
, 			{
				"name" : "mo.oocsiparse.js",
				"bootpath" : "~/Documents/GitHub/oocsi-max/js",
				"patcherrelativepath" : "../js",
				"type" : "TEXT",
				"implicit" : 1
			}
, 			{
				"name" : "mo.play.svg",
				"bootpath" : "~/Documents/Max 9/Packages/modulo/misc/icons",
				"patcherrelativepath" : "../../../Max 9/Packages/modulo/misc/icons",
				"type" : "svg",
				"implicit" : 1
			}
, 			{
				"name" : "mo.resize.js",
				"bootpath" : "~/Documents/Max 9/Packages/modulo/misc/js",
				"patcherrelativepath" : "../../../Max 9/Packages/modulo/misc/js",
				"type" : "TEXT",
				"implicit" : 1
			}
, 			{
				"name" : "mo.stop.svg",
				"bootpath" : "~/Documents/Max 9/Packages/modulo/misc/icons",
				"patcherrelativepath" : "../../../Max 9/Packages/modulo/misc/icons",
				"type" : "svg",
				"implicit" : 1
			}
, 			{
				"name" : "oocsi.maxpat",
				"bootpath" : "~/Documents/GitHub/oocsi-max/patchers",
				"patcherrelativepath" : "../patchers",
				"type" : "JSON",
				"implicit" : 1
			}
, 			{
				"name" : "sadam.tcpClient.mxo",
				"type" : "iLaX"
			}
 ],
		"autosave" : 0
	}

}
