{
	"patcher" : 	{
		"fileversion" : 1,
		"appversion" : 		{
			"major" : 9,
			"minor" : 0,
			"revision" : 5,
			"architecture" : "x64",
			"modernui" : 1
		}
,
		"classnamespace" : "box",
		"rect" : [ 34.0, 93.0, 1212.0, 701.0 ],
		"gridsize" : [ 15.0, 15.0 ],
		"boxes" : [ 			{
				"box" : 				{
					"bgcolor" : [ 1.0, 0.788235, 0.470588, 1.0 ],
					"bgoncolor" : [ 0.55, 0.55, 0.55, 1.0 ],
					"fontname" : "Ableton Sans Medium",
					"fontsize" : 10.0,
					"hint" : "",
					"id" : "obj-16",
					"ignoreclick" : 1,
					"legacytextcolor" : 1,
					"maxclass" : "textbutton",
					"numinlets" : 1,
					"numoutlets" : 3,
					"outlettype" : [ "", "", "int" ],
					"parameter_enable" : 0,
					"patching_rect" : [ 387.0, 83.0, 20.0, 20.0 ],
					"rounded" : 60.0,
					"text" : "4",
					"textcolor" : [ 0.34902, 0.34902, 0.34902, 1.0 ],
					"textoncolor" : [ 1.0, 1.0, 1.0, 1.0 ],
					"textovercolor" : [ 0.1, 0.1, 0.1, 1.0 ],
					"usebgoncolor" : 1,
					"usetextovercolor" : 1
				}

			}
, 			{
				"box" : 				{
					"id" : "obj-3",
					"maxclass" : "newobj",
					"numinlets" : 2,
					"numoutlets" : 1,
					"outlettype" : [ "" ],
					"patching_rect" : [ 491.0, 279.0, 68.0, 22.0 ],
					"text" : "mo.pipe 20",
					"varname" : "mo.pipe"
				}

			}
, 			{
				"box" : 				{
					"bgmode" : 0,
					"border" : 1,
					"clickthrough" : 0,
					"enablehscroll" : 0,
					"enablevscroll" : 0,
					"id" : "obj-25",
					"lockeddragscroll" : 0,
					"lockedsize" : 0,
					"maxclass" : "bpatcher",
					"name" : "mo.console.maxpat",
					"numinlets" : 1,
					"numoutlets" : 1,
					"offset" : [ 0.0, 0.0 ],
					"outlettype" : [ "" ],
					"patching_rect" : [ 964.0, 621.0, 70.0, 45.0 ],
					"viewvisibility" : 1
				}

			}
, 			{
				"box" : 				{
					"id" : "obj-11",
					"maxclass" : "newobj",
					"numinlets" : 1,
					"numoutlets" : 2,
					"outlettype" : [ "", "" ],
					"patching_rect" : [ 918.0, 173.0, 29.5, 22.0 ],
					"text" : "t l l"
				}

			}
, 			{
				"box" : 				{
					"id" : "obj-6",
					"maxclass" : "message",
					"numinlets" : 2,
					"numoutlets" : 1,
					"outlettype" : [ "" ],
					"patching_rect" : [ 918.0, 134.0, 48.0, 22.0 ],
					"text" : "ping $1"
				}

			}
, 			{
				"box" : 				{
					"id" : "obj-4",
					"maxclass" : "toggle",
					"numinlets" : 1,
					"numoutlets" : 1,
					"outlettype" : [ "int" ],
					"parameter_enable" : 0,
					"patching_rect" : [ 975.0, 81.0, 24.0, 24.0 ]
				}

			}
, 			{
				"box" : 				{
					"id" : "obj-2",
					"maxclass" : "message",
					"numinlets" : 2,
					"numoutlets" : 1,
					"outlettype" : [ "" ],
					"patching_rect" : [ 975.0, 134.0, 59.0, 22.0 ],
					"text" : "debug $1"
				}

			}
, 			{
				"box" : 				{
					"fontname" : "Ableton Sans Medium",
					"fontsize" : 14.0,
					"id" : "obj-26",
					"linecount" : 2,
					"maxclass" : "comment",
					"numinlets" : 1,
					"numoutlets" : 0,
					"patching_rect" : [ 9.0, 7.0, 837.0, 40.0 ],
					"text" : "Max recognnizes which device connects first by sending a ping every second.\nThis ensures each device can send its own data while Max properly parsing incoming data and adding dynamic indexing to each board."
				}

			}
, 			{
				"box" : 				{
					"bgcolor" : [ 1.0, 0.788235, 0.470588, 1.0 ],
					"bgoncolor" : [ 0.55, 0.55, 0.55, 1.0 ],
					"fontname" : "Ableton Sans Medium",
					"fontsize" : 10.0,
					"hint" : "",
					"id" : "obj-62",
					"ignoreclick" : 1,
					"legacytextcolor" : 1,
					"maxclass" : "textbutton",
					"numinlets" : 1,
					"numoutlets" : 3,
					"outlettype" : [ "", "", "int" ],
					"parameter_enable" : 0,
					"patching_rect" : [ 70.0, 83.0, 20.0, 20.0 ],
					"rounded" : 60.0,
					"text" : "3",
					"textcolor" : [ 0.34902, 0.34902, 0.34902, 1.0 ],
					"textoncolor" : [ 1.0, 1.0, 1.0, 1.0 ],
					"textovercolor" : [ 0.1, 0.1, 0.1, 1.0 ],
					"usebgoncolor" : 1,
					"usetextovercolor" : 1
				}

			}
, 			{
				"box" : 				{
					"bgcolor" : [ 1.0, 0.788235, 0.470588, 1.0 ],
					"bgoncolor" : [ 0.55, 0.55, 0.55, 1.0 ],
					"fontname" : "Ableton Sans Medium",
					"fontsize" : 10.0,
					"hint" : "",
					"id" : "obj-61",
					"ignoreclick" : 1,
					"legacytextcolor" : 1,
					"maxclass" : "textbutton",
					"numinlets" : 1,
					"numoutlets" : 3,
					"outlettype" : [ "", "", "int" ],
					"parameter_enable" : 0,
					"patching_rect" : [ 508.0, 83.0, 20.0, 20.0 ],
					"rounded" : 60.0,
					"text" : "2",
					"textcolor" : [ 0.34902, 0.34902, 0.34902, 1.0 ],
					"textoncolor" : [ 1.0, 1.0, 1.0, 1.0 ],
					"textovercolor" : [ 0.1, 0.1, 0.1, 1.0 ],
					"usebgoncolor" : 1,
					"usetextovercolor" : 1
				}

			}
, 			{
				"box" : 				{
					"bgcolor" : [ 1.0, 0.788235, 0.470588, 1.0 ],
					"bgoncolor" : [ 0.55, 0.55, 0.55, 1.0 ],
					"fontname" : "Ableton Sans Medium",
					"fontsize" : 10.0,
					"hint" : "",
					"id" : "obj-35",
					"ignoreclick" : 1,
					"legacytextcolor" : 1,
					"maxclass" : "textbutton",
					"numinlets" : 1,
					"numoutlets" : 3,
					"outlettype" : [ "", "", "int" ],
					"parameter_enable" : 0,
					"patching_rect" : [ 603.0, 83.0, 20.0, 20.0 ],
					"rounded" : 60.0,
					"text" : "1",
					"textcolor" : [ 0.34902, 0.34902, 0.34902, 1.0 ],
					"textoncolor" : [ 1.0, 1.0, 1.0, 1.0 ],
					"textovercolor" : [ 0.1, 0.1, 0.1, 1.0 ],
					"usebgoncolor" : 1,
					"usetextovercolor" : 1
				}

			}
, 			{
				"box" : 				{
					"id" : "obj-56",
					"maxclass" : "slider",
					"numinlets" : 1,
					"numoutlets" : 1,
					"outlettype" : [ "" ],
					"parameter_enable" : 0,
					"patching_rect" : [ 874.0, 526.0, 20.0, 140.0 ]
				}

			}
, 			{
				"box" : 				{
					"id" : "obj-57",
					"maxclass" : "slider",
					"numinlets" : 1,
					"numoutlets" : 1,
					"outlettype" : [ "" ],
					"parameter_enable" : 0,
					"patching_rect" : [ 843.0, 526.0, 20.0, 140.0 ]
				}

			}
, 			{
				"box" : 				{
					"id" : "obj-58",
					"maxclass" : "newobj",
					"numinlets" : 3,
					"numoutlets" : 3,
					"outlettype" : [ "", "", "" ],
					"patching_rect" : [ 843.0, 459.0, 56.0, 22.0 ],
					"text" : "route 1 2"
				}

			}
, 			{
				"box" : 				{
					"id" : "obj-53",
					"maxclass" : "slider",
					"numinlets" : 1,
					"numoutlets" : 1,
					"outlettype" : [ "" ],
					"parameter_enable" : 0,
					"patching_rect" : [ 360.0, 81.0, 20.0, 140.0 ]
				}

			}
, 			{
				"box" : 				{
					"id" : "obj-54",
					"maxclass" : "message",
					"numinlets" : 2,
					"numoutlets" : 1,
					"outlettype" : [ "" ],
					"patching_rect" : [ 360.0, 231.0, 42.0, 22.0 ],
					"text" : "pot $1"
				}

			}
, 			{
				"box" : 				{
					"id" : "obj-51",
					"maxclass" : "slider",
					"numinlets" : 1,
					"numoutlets" : 1,
					"outlettype" : [ "" ],
					"parameter_enable" : 0,
					"patching_rect" : [ 106.0, 81.0, 20.0, 140.0 ]
				}

			}
, 			{
				"box" : 				{
					"id" : "obj-50",
					"maxclass" : "message",
					"numinlets" : 2,
					"numoutlets" : 1,
					"outlettype" : [ "" ],
					"patching_rect" : [ 106.0, 231.0, 42.0, 22.0 ],
					"text" : "pot $1"
				}

			}
, 			{
				"box" : 				{
					"id" : "obj-46",
					"maxclass" : "newobj",
					"numinlets" : 2,
					"numoutlets" : 2,
					"outlettype" : [ "", "" ],
					"patching_rect" : [ 826.0, 325.0, 81.0, 22.0 ],
					"text" : "route channel"
				}

			}
, 			{
				"box" : 				{
					"id" : "obj-45",
					"maxclass" : "newobj",
					"numinlets" : 1,
					"numoutlets" : 3,
					"outlettype" : [ "", "", "" ],
					"patching_rect" : [ 480.0, 173.0, 40.0, 22.0 ],
					"text" : "t l l l"
				}

			}
, 			{
				"box" : 				{
					"id" : "obj-44",
					"maxclass" : "button",
					"numinlets" : 1,
					"numoutlets" : 1,
					"outlettype" : [ "bang" ],
					"parameter_enable" : 0,
					"patching_rect" : [ 574.0, 81.0, 24.0, 24.0 ]
				}

			}
, 			{
				"box" : 				{
					"bgmode" : 0,
					"border" : 1,
					"clickthrough" : 0,
					"enablehscroll" : 0,
					"enablevscroll" : 0,
					"id" : "obj-41",
					"lockeddragscroll" : 0,
					"lockedsize" : 0,
					"maxclass" : "bpatcher",
					"name" : "oocsi.maxpat",
					"numinlets" : 2,
					"numoutlets" : 2,
					"offset" : [ 0.0, 0.0 ],
					"outlettype" : [ "", "" ],
					"patching_rect" : [ 575.0, 325.0, 214.0, 45.0 ],
					"varname" : "oocsi[2]",
					"viewvisibility" : 1
				}

			}
, 			{
				"box" : 				{
					"id" : "obj-40",
					"maxclass" : "message",
					"numinlets" : 2,
					"numoutlets" : 1,
					"outlettype" : [ "" ],
					"patching_rect" : [ 795.0, 134.0, 112.0, 22.0 ],
					"text" : "client client-2_####"
				}

			}
, 			{
				"box" : 				{
					"id" : "obj-39",
					"maxclass" : "message",
					"numinlets" : 2,
					"numoutlets" : 1,
					"outlettype" : [ "" ],
					"patching_rect" : [ 673.0, 134.0, 112.0, 22.0 ],
					"text" : "client client-1_####"
				}

			}
, 			{
				"box" : 				{
					"id" : "obj-38",
					"maxclass" : "message",
					"numinlets" : 2,
					"numoutlets" : 1,
					"outlettype" : [ "" ],
					"patching_rect" : [ 574.0, 134.0, 89.0, 22.0 ],
					"text" : "channel testing"
				}

			}
, 			{
				"box" : 				{
					"id" : "obj-36",
					"maxclass" : "toggle",
					"numinlets" : 1,
					"numoutlets" : 1,
					"outlettype" : [ "int" ],
					"parameter_enable" : 0,
					"patching_rect" : [ 480.0, 81.0, 24.0, 24.0 ]
				}

			}
, 			{
				"box" : 				{
					"id" : "obj-31",
					"maxclass" : "toggle",
					"numinlets" : 1,
					"numoutlets" : 1,
					"outlettype" : [ "int" ],
					"parameter_enable" : 0,
					"patching_rect" : [ 296.0, 81.0, 24.0, 24.0 ]
				}

			}
, 			{
				"box" : 				{
					"id" : "obj-32",
					"maxclass" : "message",
					"numinlets" : 2,
					"numoutlets" : 1,
					"outlettype" : [ "" ],
					"patching_rect" : [ 296.0, 231.0, 51.0, 22.0 ],
					"text" : "push $1"
				}

			}
, 			{
				"box" : 				{
					"bgmode" : 0,
					"border" : 1,
					"clickthrough" : 0,
					"enablehscroll" : 0,
					"enablevscroll" : 0,
					"id" : "obj-33",
					"lockeddragscroll" : 0,
					"lockedsize" : 0,
					"maxclass" : "bpatcher",
					"name" : "oocsi.maxpat",
					"numinlets" : 2,
					"numoutlets" : 2,
					"offset" : [ 0.0, 0.0 ],
					"outlettype" : [ "", "" ],
					"patching_rect" : [ 296.0, 325.0, 214.0, 45.0 ],
					"varname" : "oocsi[1]",
					"viewvisibility" : 1
				}

			}
, 			{
				"box" : 				{
					"id" : "obj-28",
					"maxclass" : "message",
					"numinlets" : 2,
					"numoutlets" : 1,
					"outlettype" : [ "" ],
					"patching_rect" : [ 480.0, 134.0, 67.0, 22.0 ],
					"text" : "connect $1"
				}

			}
, 			{
				"box" : 				{
					"id" : "obj-22",
					"maxclass" : "toggle",
					"numinlets" : 1,
					"numoutlets" : 1,
					"outlettype" : [ "int" ],
					"parameter_enable" : 0,
					"patching_rect" : [ 39.0, 81.0, 24.0, 24.0 ]
				}

			}
, 			{
				"box" : 				{
					"id" : "obj-19",
					"maxclass" : "message",
					"numinlets" : 2,
					"numoutlets" : 1,
					"outlettype" : [ "" ],
					"patching_rect" : [ 39.0, 231.0, 51.0, 22.0 ],
					"text" : "push $1"
				}

			}
, 			{
				"box" : 				{
					"bgmode" : 0,
					"border" : 1,
					"clickthrough" : 0,
					"enablehscroll" : 0,
					"enablevscroll" : 0,
					"id" : "obj-1",
					"lockeddragscroll" : 0,
					"lockedsize" : 0,
					"maxclass" : "bpatcher",
					"name" : "oocsi.maxpat",
					"numinlets" : 2,
					"numoutlets" : 2,
					"offset" : [ 0.0, 0.0 ],
					"outlettype" : [ "", "" ],
					"patching_rect" : [ 39.0, 325.0, 214.0, 45.0 ],
					"varname" : "oocsi",
					"viewvisibility" : 1
				}

			}
, 			{
				"box" : 				{
					"id" : "obj-34",
					"maxclass" : "newobj",
					"numinlets" : 2,
					"numoutlets" : 2,
					"outlettype" : [ "", "" ],
					"patching_rect" : [ 770.0, 382.0, 75.0, 22.0 ],
					"text" : "route testing"
				}

			}
, 			{
				"box" : 				{
					"id" : "obj-14",
					"maxclass" : "toggle",
					"numinlets" : 1,
					"numoutlets" : 1,
					"outlettype" : [ "int" ],
					"parameter_enable" : 0,
					"patching_rect" : [ 801.0, 526.0, 24.0, 24.0 ]
				}

			}
, 			{
				"box" : 				{
					"id" : "obj-12",
					"maxclass" : "toggle",
					"numinlets" : 1,
					"numoutlets" : 1,
					"outlettype" : [ "int" ],
					"parameter_enable" : 0,
					"patching_rect" : [ 770.0, 526.0, 24.0, 24.0 ]
				}

			}
, 			{
				"box" : 				{
					"id" : "obj-9",
					"maxclass" : "newobj",
					"numinlets" : 3,
					"numoutlets" : 3,
					"outlettype" : [ "", "", "" ],
					"patching_rect" : [ 770.0, 420.0, 165.0, 22.0 ],
					"text" : "route push pot"
				}

			}
, 			{
				"box" : 				{
					"id" : "obj-7",
					"maxclass" : "newobj",
					"numinlets" : 3,
					"numoutlets" : 3,
					"outlettype" : [ "", "", "" ],
					"patching_rect" : [ 770.0, 459.0, 56.0, 22.0 ],
					"text" : "route 1 2"
				}

			}
 ],
		"lines" : [ 			{
				"patchline" : 				{
					"destination" : [ "obj-1", 1 ],
					"midpoints" : [ 938.0, 312.0, 243.5, 312.0 ],
					"source" : [ "obj-11", 1 ]
				}

			}
, 			{
				"patchline" : 				{
					"destination" : [ "obj-33", 1 ],
					"midpoints" : [ 927.5, 312.0, 500.5, 312.0 ],
					"source" : [ "obj-11", 0 ]
				}

			}
, 			{
				"patchline" : 				{
					"destination" : [ "obj-1", 0 ],
					"midpoints" : [ 48.5, 255.0, 48.5, 255.0 ],
					"source" : [ "obj-19", 0 ]
				}

			}
, 			{
				"patchline" : 				{
					"destination" : [ "obj-41", 1 ],
					"midpoints" : [ 984.5, 312.0, 779.5, 312.0 ],
					"source" : [ "obj-2", 0 ]
				}

			}
, 			{
				"patchline" : 				{
					"destination" : [ "obj-19", 0 ],
					"midpoints" : [ 48.5, 108.0, 48.5, 108.0 ],
					"source" : [ "obj-22", 0 ]
				}

			}
, 			{
				"patchline" : 				{
					"destination" : [ "obj-45", 0 ],
					"midpoints" : [ 489.5, 159.0, 489.5, 159.0 ],
					"source" : [ "obj-28", 0 ]
				}

			}
, 			{
				"patchline" : 				{
					"destination" : [ "obj-33", 1 ],
					"midpoints" : [ 500.5, 303.0, 500.5, 303.0 ],
					"source" : [ "obj-3", 0 ]
				}

			}
, 			{
				"patchline" : 				{
					"destination" : [ "obj-32", 0 ],
					"midpoints" : [ 305.5, 108.0, 305.5, 108.0 ],
					"source" : [ "obj-31", 0 ]
				}

			}
, 			{
				"patchline" : 				{
					"destination" : [ "obj-33", 0 ],
					"midpoints" : [ 305.5, 255.0, 305.5, 255.0 ],
					"source" : [ "obj-32", 0 ]
				}

			}
, 			{
				"patchline" : 				{
					"destination" : [ "obj-9", 0 ],
					"midpoints" : [ 779.5, 405.0, 779.5, 405.0 ],
					"source" : [ "obj-34", 0 ]
				}

			}
, 			{
				"patchline" : 				{
					"destination" : [ "obj-28", 0 ],
					"midpoints" : [ 489.5, 108.0, 489.5, 108.0 ],
					"order" : 1,
					"source" : [ "obj-36", 0 ]
				}

			}
, 			{
				"patchline" : 				{
					"destination" : [ "obj-6", 0 ],
					"midpoints" : [ 489.5, 120.0, 927.5, 120.0 ],
					"order" : 0,
					"source" : [ "obj-36", 0 ]
				}

			}
, 			{
				"patchline" : 				{
					"destination" : [ "obj-1", 1 ],
					"midpoints" : [ 583.5, 312.0, 243.5, 312.0 ],
					"order" : 3,
					"source" : [ "obj-38", 0 ]
				}

			}
, 			{
				"patchline" : 				{
					"destination" : [ "obj-33", 1 ],
					"midpoints" : [ 583.5, 312.0, 500.5, 312.0 ],
					"order" : 1,
					"source" : [ "obj-38", 0 ]
				}

			}
, 			{
				"patchline" : 				{
					"destination" : [ "obj-41", 1 ],
					"midpoints" : [ 583.5, 312.0, 779.5, 312.0 ],
					"order" : 2,
					"source" : [ "obj-38", 0 ]
				}

			}
, 			{
				"patchline" : 				{
					"destination" : [ "obj-46", 0 ],
					"midpoints" : [ 583.5, 312.0, 835.5, 312.0 ],
					"order" : 0,
					"source" : [ "obj-38", 0 ]
				}

			}
, 			{
				"patchline" : 				{
					"destination" : [ "obj-1", 1 ],
					"midpoints" : [ 682.5, 312.0, 243.5, 312.0 ],
					"source" : [ "obj-39", 0 ]
				}

			}
, 			{
				"patchline" : 				{
					"destination" : [ "obj-2", 0 ],
					"midpoints" : [ 984.5, 108.0, 984.5, 108.0 ],
					"source" : [ "obj-4", 0 ]
				}

			}
, 			{
				"patchline" : 				{
					"destination" : [ "obj-33", 1 ],
					"midpoints" : [ 804.5, 312.0, 500.5, 312.0 ],
					"source" : [ "obj-40", 0 ]
				}

			}
, 			{
				"patchline" : 				{
					"destination" : [ "obj-34", 0 ],
					"midpoints" : [ 779.5, 372.0, 779.5, 372.0 ],
					"source" : [ "obj-41", 1 ]
				}

			}
, 			{
				"patchline" : 				{
					"destination" : [ "obj-38", 0 ],
					"midpoints" : [ 583.5, 108.0, 583.5, 108.0 ],
					"order" : 2,
					"source" : [ "obj-44", 0 ]
				}

			}
, 			{
				"patchline" : 				{
					"destination" : [ "obj-39", 0 ],
					"midpoints" : [ 583.5, 120.0, 682.5, 120.0 ],
					"order" : 1,
					"source" : [ "obj-44", 0 ]
				}

			}
, 			{
				"patchline" : 				{
					"destination" : [ "obj-40", 0 ],
					"midpoints" : [ 583.5, 120.0, 804.5, 120.0 ],
					"order" : 0,
					"source" : [ "obj-44", 0 ]
				}

			}
, 			{
				"patchline" : 				{
					"destination" : [ "obj-1", 1 ],
					"midpoints" : [ 510.5, 264.0, 243.5, 264.0 ],
					"source" : [ "obj-45", 2 ]
				}

			}
, 			{
				"patchline" : 				{
					"destination" : [ "obj-3", 0 ],
					"midpoints" : [ 500.0, 198.0, 500.5, 198.0 ],
					"source" : [ "obj-45", 1 ]
				}

			}
, 			{
				"patchline" : 				{
					"destination" : [ "obj-41", 1 ],
					"midpoints" : [ 489.5, 264.0, 779.5, 264.0 ],
					"source" : [ "obj-45", 0 ]
				}

			}
, 			{
				"patchline" : 				{
					"destination" : [ "obj-34", 1 ],
					"midpoints" : [ 835.5, 348.0, 835.5, 348.0 ],
					"source" : [ "obj-46", 0 ]
				}

			}
, 			{
				"patchline" : 				{
					"destination" : [ "obj-1", 0 ],
					"midpoints" : [ 115.5, 312.0, 48.5, 312.0 ],
					"source" : [ "obj-50", 0 ]
				}

			}
, 			{
				"patchline" : 				{
					"destination" : [ "obj-50", 0 ],
					"midpoints" : [ 115.5, 222.0, 115.5, 222.0 ],
					"source" : [ "obj-51", 0 ]
				}

			}
, 			{
				"patchline" : 				{
					"destination" : [ "obj-54", 0 ],
					"midpoints" : [ 369.5, 222.0, 369.5, 222.0 ],
					"source" : [ "obj-53", 0 ]
				}

			}
, 			{
				"patchline" : 				{
					"destination" : [ "obj-33", 0 ],
					"midpoints" : [ 369.5, 312.0, 305.5, 312.0 ],
					"source" : [ "obj-54", 0 ]
				}

			}
, 			{
				"patchline" : 				{
					"destination" : [ "obj-56", 0 ],
					"midpoints" : [ 871.0, 513.0, 883.5, 513.0 ],
					"source" : [ "obj-58", 1 ]
				}

			}
, 			{
				"patchline" : 				{
					"destination" : [ "obj-57", 0 ],
					"midpoints" : [ 852.5, 483.0, 852.5, 483.0 ],
					"source" : [ "obj-58", 0 ]
				}

			}
, 			{
				"patchline" : 				{
					"destination" : [ "obj-11", 0 ],
					"midpoints" : [ 927.5, 159.0, 927.5, 159.0 ],
					"source" : [ "obj-6", 0 ]
				}

			}
, 			{
				"patchline" : 				{
					"destination" : [ "obj-12", 0 ],
					"midpoints" : [ 779.5, 483.0, 779.5, 483.0 ],
					"source" : [ "obj-7", 0 ]
				}

			}
, 			{
				"patchline" : 				{
					"destination" : [ "obj-14", 0 ],
					"midpoints" : [ 798.0, 513.0, 810.5, 513.0 ],
					"source" : [ "obj-7", 1 ]
				}

			}
, 			{
				"patchline" : 				{
					"destination" : [ "obj-58", 0 ],
					"midpoints" : [ 852.5, 444.0, 852.5, 444.0 ],
					"source" : [ "obj-9", 1 ]
				}

			}
, 			{
				"patchline" : 				{
					"destination" : [ "obj-7", 0 ],
					"midpoints" : [ 779.5, 444.0, 779.5, 444.0 ],
					"source" : [ "obj-9", 0 ]
				}

			}
 ],
		"originid" : "pat-4",
		"parameters" : 		{
			"obj-1::obj-115" : [ "live.text[3]", "live.text", 0 ],
			"obj-1::obj-135" : [ "live.text[71]", "live.text", 0 ],
			"obj-1::obj-31" : [ "live.text[24]", "live.text", 0 ],
			"obj-1::obj-32" : [ "live.text[5]", "live.text", 0 ],
			"obj-1::obj-4" : [ "live.text[2]", "live.text", 0 ],
			"obj-1::obj-54" : [ "live.text[1]", "live.text", 0 ],
			"obj-1::obj-7" : [ "live.text[112]", "live.text", 0 ],
			"obj-1::obj-70" : [ "live.numbox[28]", "live.numbox", 0 ],
			"obj-25::obj-13" : [ "live.dial[44]", "live.text", 0 ],
			"obj-25::obj-7" : [ "live.dial[37]", "live.text", 0 ],
			"obj-25::obj-9" : [ "live.text[295]", "live.text", 0 ],
			"obj-33::obj-115" : [ "live.text[14]", "live.text", 0 ],
			"obj-33::obj-135" : [ "live.text[4]", "live.text", 0 ],
			"obj-33::obj-31" : [ "live.text[13]", "live.text", 0 ],
			"obj-33::obj-32" : [ "live.text[12]", "live.text", 0 ],
			"obj-33::obj-4" : [ "live.text[15]", "live.text", 0 ],
			"obj-33::obj-54" : [ "live.text[242]", "live.text", 0 ],
			"obj-33::obj-7" : [ "live.text[26]", "live.text", 0 ],
			"obj-33::obj-70" : [ "live.numbox[1]", "live.numbox", 0 ],
			"obj-3::obj-13" : [ "live.numbox[3]", "live.numbox", 0 ],
			"obj-3::obj-9" : [ "live.text[27]", "live.text", 0 ],
			"obj-41::obj-115" : [ "live.text[22]", "live.text", 0 ],
			"obj-41::obj-135" : [ "live.text[19]", "live.text", 0 ],
			"obj-41::obj-31" : [ "live.text[25]", "live.text", 0 ],
			"obj-41::obj-32" : [ "live.text[20]", "live.text", 0 ],
			"obj-41::obj-4" : [ "live.text[23]", "live.text", 0 ],
			"obj-41::obj-54" : [ "live.text[18]", "live.text", 0 ],
			"obj-41::obj-7" : [ "live.text[21]", "live.text", 0 ],
			"obj-41::obj-70" : [ "live.numbox[2]", "live.numbox", 0 ],
			"parameterbanks" : 			{
				"0" : 				{
					"index" : 0,
					"name" : "",
					"parameters" : [ "-", "-", "-", "-", "-", "-", "-", "-" ]
				}

			}
,
			"parameter_overrides" : 			{
				"obj-1::obj-115" : 				{
					"parameter_longname" : "live.text[3]"
				}
,
				"obj-1::obj-135" : 				{
					"parameter_longname" : "live.text[71]"
				}
,
				"obj-1::obj-31" : 				{
					"parameter_invisible" : 0,
					"parameter_longname" : "live.text[24]",
					"parameter_modmode" : 0,
					"parameter_type" : 2,
					"parameter_unitstyle" : 10
				}
,
				"obj-1::obj-32" : 				{
					"parameter_longname" : "live.text[5]"
				}
,
				"obj-1::obj-4" : 				{
					"parameter_longname" : "live.text[2]"
				}
,
				"obj-1::obj-54" : 				{
					"parameter_longname" : "live.text[1]"
				}
,
				"obj-1::obj-7" : 				{
					"parameter_longname" : "live.text[112]"
				}
,
				"obj-1::obj-70" : 				{
					"parameter_longname" : "live.numbox[28]"
				}
,
				"obj-33::obj-115" : 				{
					"parameter_longname" : "live.text[14]"
				}
,
				"obj-33::obj-135" : 				{
					"parameter_longname" : "live.text[4]"
				}
,
				"obj-33::obj-31" : 				{
					"parameter_longname" : "live.text[13]"
				}
,
				"obj-33::obj-32" : 				{
					"parameter_longname" : "live.text[12]"
				}
,
				"obj-33::obj-4" : 				{
					"parameter_longname" : "live.text[15]"
				}
,
				"obj-33::obj-54" : 				{
					"parameter_longname" : "live.text[242]"
				}
,
				"obj-33::obj-7" : 				{
					"parameter_longname" : "live.text[26]"
				}
,
				"obj-33::obj-70" : 				{
					"parameter_longname" : "live.numbox[1]"
				}
,
				"obj-3::obj-13" : 				{
					"parameter_longname" : "live.numbox[3]"
				}
,
				"obj-3::obj-9" : 				{
					"parameter_longname" : "live.text[27]"
				}
,
				"obj-41::obj-115" : 				{
					"parameter_longname" : "live.text[22]"
				}
,
				"obj-41::obj-135" : 				{
					"parameter_longname" : "live.text[19]"
				}
,
				"obj-41::obj-31" : 				{
					"parameter_longname" : "live.text[25]"
				}
,
				"obj-41::obj-32" : 				{
					"parameter_longname" : "live.text[20]"
				}
,
				"obj-41::obj-4" : 				{
					"parameter_longname" : "live.text[23]"
				}
,
				"obj-41::obj-54" : 				{
					"parameter_longname" : "live.text[18]"
				}
,
				"obj-41::obj-7" : 				{
					"parameter_longname" : "live.text[21]"
				}
,
				"obj-41::obj-70" : 				{
					"parameter_longname" : "live.numbox[2]"
				}

			}
,
			"inherited_shortname" : 1
		}
,
		"dependency_cache" : [ 			{
				"name" : "a-mo.settings.maxpat",
				"bootpath" : "~/Documents/Max 9/Packages/modulo/misc/abstractions",
				"patcherrelativepath" : "../../../Max 9/Packages/modulo/misc/abstractions",
				"type" : "JSON",
				"implicit" : 1
			}
, 			{
				"name" : "mo.console.maxpat",
				"bootpath" : "~/Documents/Max 9/Packages/modulo-plus/patchers/utility",
				"patcherrelativepath" : "../../../Max 9/Packages/modulo-plus/patchers/utility",
				"type" : "JSON",
				"implicit" : 1
			}
, 			{
				"name" : "mo.pipe.maxpat",
				"bootpath" : "~/Documents/Max 9/Packages/modulo/patchers/transform",
				"patcherrelativepath" : "../../../Max 9/Packages/modulo/patchers/transform",
				"type" : "JSON",
				"implicit" : 1
			}
, 			{
				"name" : "mo.play.svg",
				"bootpath" : "~/Documents/Max 9/Packages/modulo/misc/icons",
				"patcherrelativepath" : "../../../Max 9/Packages/modulo/misc/icons",
				"type" : "svg",
				"implicit" : 1
			}
, 			{
				"name" : "mo.resize.js",
				"bootpath" : "~/Documents/Max 9/Packages/modulo/misc/js",
				"patcherrelativepath" : "../../../Max 9/Packages/modulo/misc/js",
				"type" : "TEXT",
				"implicit" : 1
			}
, 			{
				"name" : "mo.stop.svg",
				"bootpath" : "~/Documents/Max 9/Packages/modulo/misc/icons",
				"patcherrelativepath" : "../../../Max 9/Packages/modulo/misc/icons",
				"type" : "svg",
				"implicit" : 1
			}
, 			{
				"name" : "oocsi.indexer.js",
				"bootpath" : "~/Documents/GitHub/oocsi-max/js",
				"patcherrelativepath" : "../js",
				"type" : "TEXT",
				"implicit" : 1
			}
, 			{
				"name" : "oocsi.maxpat",
				"bootpath" : "~/Documents/GitHub/oocsi-max/patchers",
				"patcherrelativepath" : "../patchers",
				"type" : "JSON",
				"implicit" : 1
			}
, 			{
				"name" : "oocsi.receiver.js",
				"bootpath" : "~/Documents/GitHub/oocsi-max/js",
				"patcherrelativepath" : "../js",
				"type" : "TEXT",
				"implicit" : 1
			}
, 			{
				"name" : "oocsi.sender.js",
				"bootpath" : "~/Documents/GitHub/oocsi-max/js",
				"patcherrelativepath" : "../js",
				"type" : "TEXT",
				"implicit" : 1
			}
, 			{
				"name" : "sadam.tcpClient.mxo",
				"type" : "iLaX"
			}
 ],
		"autosave" : 0
	}

}
